<svg width="60" height="60" viewBox="0 0 60 60" fill="none" xmlns="http://www.w3.org/2000/svg">
<circle cx="30" cy="30" r="30" fill="white"/>
<path d="M27.2867 6.87402C27.0003 7.12596 26.7967 7.47436 26.7967 7.85818L26.8325 8.68881L26.4477 8.7203C26.3416 8.71827 26.2361 8.73516 26.1376 8.76995C26.0391 8.80474 25.9497 8.85672 25.8746 8.92274C25.7996 8.98877 25.7405 9.06748 25.7009 9.15413C25.6614 9.24078 25.6422 9.33357 25.6445 9.42693C25.6422 9.52028 25.6614 9.61308 25.701 9.69973C25.7405 9.78638 25.7996 9.86509 25.8746 9.93111C25.9497 9.99714 26.0391 10.0491 26.1376 10.0839C26.2361 10.1187 26.3416 10.1356 26.4477 10.1336L26.8325 10.165V10.6571L26.4466 10.6876C26.3405 10.6856 26.235 10.7025 26.1365 10.7373C26.038 10.7721 25.9486 10.824 25.8735 10.8901C25.7985 10.9561 25.7394 11.0348 25.6998 11.1215C25.6603 11.2081 25.6411 11.3009 25.6434 11.3943C25.6408 11.4879 25.6598 11.5811 25.6994 11.6681C25.7389 11.7552 25.7981 11.8342 25.8735 11.9005C25.9488 11.9667 26.0386 12.0188 26.1375 12.0536C26.2364 12.0884 26.3423 12.1052 26.4488 12.1029L26.8325 12.1334L26.8314 12.5024C26.83 12.7399 26.9006 12.9734 27.0359 13.1789C27.1712 13.3844 27.3662 13.5545 27.601 13.6716L27.601 22.283C25.7072 22.3942 23.1399 22.8243 21.4831 24.2818C20.7482 24.9284 20.2168 25.7896 19.9797 26.8957C19.455 29.3512 21.4898 30.5824 21.4484 32.3706C21.4037 34.3783 17.3217 36.383 17.3229 41.5351C17.3217 46.6852 22.6678 49.1053 29.9782 48.9783C34.5378 49.057 38.3233 48.1555 40.5349 46.2099C41.8672 45.0377 42.6335 43.4739 42.6335 41.5351C42.6335 36.384 38.5538 34.3813 38.5079 32.3706C38.4688 30.5844 40.5707 29.3532 40.0461 26.8957C39.2787 23.2937 35.1027 22.4444 32.3553 22.283L32.3553 13.6716C32.8184 13.4295 33.125 13.0122 33.125 12.5024L33.1238 12.1334L33.5098 12.1029C33.6123 12.1086 33.7151 12.0951 33.8113 12.0634C33.9075 12.0317 33.995 11.9824 34.068 11.9188C34.2237 11.7789 34.3112 11.5911 34.3118 11.3952C34.3142 11.3019 34.295 11.2091 34.2554 11.1224C34.2159 11.0358 34.1568 10.9571 34.0817 10.8911C34.0067 10.825 33.9172 10.7731 33.8187 10.7383C33.7202 10.7035 33.6148 10.6866 33.5087 10.6886L33.1238 10.6571L33.1238 10.165L33.5098 10.1345C33.6123 10.1403 33.7151 10.1268 33.8113 10.0951C33.9075 10.0634 33.995 10.0141 34.068 9.9505C34.2237 9.81059 34.3112 9.62273 34.3118 9.42693C34.3142 9.33357 34.295 9.24078 34.2554 9.15413C34.2159 9.06748 34.1568 8.98876 34.0817 8.92274C34.0067 8.85671 33.9172 8.80474 33.8187 8.76995C33.7202 8.73516 33.6148 8.71827 33.5087 8.7203L33.1238 8.68881L33.1596 7.85818C33.1605 7.67625 33.1204 7.49597 33.0417 7.32774C32.963 7.15951 32.8471 7.00666 32.7009 6.87801C32.5547 6.74937 32.381 6.64747 32.1897 6.57821C31.9985 6.50894 31.7936 6.47368 31.5868 6.47445L28.3673 6.47445C28.1658 6.47317 27.9661 6.50792 27.7804 6.57661C27.5946 6.6453 27.4267 6.74648 27.2867 6.87402ZM28.5452 8.1052C28.6313 8.02942 28.7286 7.95167 28.8595 7.95069C28.9886 7.95327 29.1115 7.99951 29.2027 8.0798C29.294 8.16009 29.3466 8.26824 29.3495 8.38175L29.3495 12.3184C29.3491 12.4329 29.2986 12.5428 29.2085 12.6254C29.1143 12.704 28.9894 12.7477 28.8595 12.7475C28.7309 12.7447 28.6084 12.6984 28.5174 12.6184C28.4264 12.5383 28.3739 12.4306 28.3707 12.3174L28.3707 8.38077C28.3707 8.2666 28.4602 8.18 28.5452 8.1052ZM30.7825 8.1052C30.8686 8.02942 30.9648 7.95069 31.0968 7.95069C31.226 7.95293 31.3491 7.99906 31.4405 8.07942C31.5318 8.15978 31.5843 8.26813 31.5868 8.38175L31.5868 12.3184C31.5864 12.4329 31.536 12.5428 31.4459 12.6254C31.3521 12.7041 31.2275 12.7481 31.098 12.7485C30.9689 12.7459 30.846 12.6996 30.7547 12.6194C30.6635 12.5391 30.6109 12.4309 30.608 12.3174L30.608 8.38077C30.608 8.2666 30.6975 8.18 30.7825 8.1052ZM23.0548 25.6646C24.1287 24.7198 25.9924 24.3635 27.5999 24.2503L27.5999 30.8324C27.5082 30.8973 27.4053 30.9406 27.3203 31.0154C26.6187 31.6368 26.225 32.477 26.225 33.3528C26.225 34.2286 26.6187 35.0688 27.3203 35.6902C28.0265 36.3074 28.9816 36.6538 29.9771 36.6538C30.9725 36.6538 31.9276 36.3074 32.6339 35.6902C33.3354 35.0688 33.7291 34.2286 33.7291 33.3528C33.7291 32.477 33.3354 31.6368 32.6339 31.0154C32.5489 30.9406 32.4459 30.8973 32.3542 30.8304L32.3542 24.1893C34.4506 24.3251 37.3568 24.953 37.8434 27.2333C38.0001 27.9734 37.7528 28.5137 37.2483 29.4162C36.8042 30.2104 36.2415 31.1975 36.2695 32.4307C36.2997 33.7839 37.1633 34.8389 38.0526 35.9677C39.1679 37.3859 40.4309 38.9871 40.4298 41.5646C40.4298 42.9188 39.9655 44.0024 38.9957 44.8557C37.2987 46.3486 34.0926 47.1104 30.0117 47.0395L29.9424 47.0395C25.8973 47.1123 22.7002 46.3585 20.9943 44.8872C19.9976 44.03 19.5277 42.9395 19.5255 41.5656C19.5255 38.9871 20.7873 37.3849 21.9026 35.9687C22.792 34.8399 23.622 33.7534 23.6511 32.4011C23.6802 31.1788 23.1387 30.2084 22.7069 29.4172C22.2125 28.5098 21.9865 28.0157 22.1476 27.2638C22.2852 26.6212 22.5761 26.0858 23.0548 25.6646ZM25.3268 40.6425C25.2375 40.7254 25.1879 40.8353 25.1881 40.9495L25.1892 42.1807C25.1906 42.2947 25.2426 42.4036 25.3342 42.4842C25.4258 42.5648 25.5497 42.6106 25.6792 42.6118L34.2772 42.6118C34.5401 42.6108 34.766 42.412 34.7671 42.1807L34.7671 40.9505C34.7647 40.8371 34.7124 40.729 34.6213 40.6488C34.5301 40.5686 34.4072 40.5226 34.2783 40.5204L25.6781 40.5204C25.5483 40.5202 25.4233 40.5639 25.3291 40.6425H25.3268Z" fill="#0C0C07"/>
</svg>
