<svg width="60" height="60" viewBox="0 0 60 60" fill="none" xmlns="http://www.w3.org/2000/svg">
<circle cx="30" cy="30" r="30" fill="white"/>
<path d="M44.6406 30.7718C46.3033 30.2434 47.7017 29.2138 48.5895 27.8643C49.4773 26.5147 49.7976 24.9318 49.494 23.3941C49.1904 21.8565 48.2823 20.4628 46.9297 19.4584C45.5771 18.454 43.8667 17.9033 42.0996 17.9033C40.3325 17.9033 38.6221 18.454 37.2695 19.4584C35.9169 20.4628 35.0089 21.8565 34.7052 23.3941C34.4016 24.9318 34.7219 26.5147 35.6097 27.8643C36.4975 29.2138 37.8959 30.2434 39.5586 30.7718C34.5126 31.8477 30.0996 35.8596 30.0996 39.1056C30.0996 40.1523 30.5346 41.7423 33.0996 41.7423H51.0996C53.6646 41.7423 54.0996 40.1523 54.0996 39.1056C54.0996 35.8622 49.6896 31.845 44.6406 30.7718Z" fill="white"/>
<path d="M44.6406 30.7718C46.3033 30.2434 47.7017 29.2138 48.5895 27.8643C49.4773 26.5147 49.7976 24.9318 49.494 23.3941C49.1904 21.8565 48.2823 20.4628 46.9297 19.4584C45.5771 18.454 43.8667 17.9033 42.0996 17.9033C40.3325 17.9033 38.6221 18.454 37.2695 19.4584C35.9169 20.4628 35.0089 21.8565 34.7052 23.3941C34.4016 24.9318 34.7219 26.5147 35.6097 27.8643C36.4975 29.2138 37.8959 30.2434 39.5586 30.7718C34.5126 31.8477 30.0996 35.8596 30.0996 39.1056C30.0996 40.1523 30.5346 41.7423 33.0996 41.7423H51.0996C53.6646 41.7423 54.0996 40.1523 54.0996 39.1056C54.0996 35.8622 49.6896 31.845 44.6406 30.7718Z" fill="#0C0C07"/>
<path d="M19.541 30.7718C21.2037 30.2434 22.6021 29.2138 23.4899 27.8643C24.3777 26.5147 24.698 24.9318 24.3944 23.3941C24.0908 21.8565 23.1827 20.4628 21.8301 19.4584C20.4775 18.454 18.7671 17.9033 17 17.9033C15.2329 17.9033 13.5225 18.454 12.1699 19.4584C10.8173 20.4628 9.90924 21.8565 9.60563 23.3941C9.30201 24.9318 9.62229 26.5147 10.5101 27.8643C11.3979 29.2138 12.7963 30.2434 14.459 30.7718C9.413 31.8477 5 35.8596 5 39.1056C5 40.1523 5.435 41.7423 8 41.7423H26C28.565 41.7423 29 40.1523 29 39.1056C29 35.8622 24.59 31.845 19.541 30.7718Z" fill="white"/>
<path d="M19.541 30.7718C21.2037 30.2434 22.6021 29.2138 23.4899 27.8643C24.3777 26.5147 24.698 24.9318 24.3944 23.3941C24.0908 21.8565 23.1827 20.4628 21.8301 19.4584C20.4775 18.454 18.7671 17.9033 17 17.9033C15.2329 17.9033 13.5225 18.454 12.1699 19.4584C10.8173 20.4628 9.90924 21.8565 9.60563 23.3941C9.30201 24.9318 9.62229 26.5147 10.5101 27.8643C11.3979 29.2138 12.7963 30.2434 14.459 30.7718C9.413 31.8477 5 35.8596 5 39.1056C5 40.1523 5.435 41.7423 8 41.7423H26C28.565 41.7423 29 40.1523 29 39.1056C29 35.8622 24.59 31.845 19.541 30.7718Z" fill="#0C0C07"/>
<path d="M32.876 31.0215C34.9544 30.3637 36.7024 29.0818 37.8121 27.4016C38.9218 25.7213 39.3222 23.7505 38.9427 21.8362C38.5632 19.9218 37.4281 18.1866 35.7373 16.9361C34.0466 15.6856 31.9086 15 29.6997 15C27.4909 15 25.3528 15.6856 23.6621 16.9361C21.9713 18.1866 20.8363 19.9218 20.4567 21.8362C20.0772 23.7505 20.4776 25.7213 21.5873 27.4016C22.6971 29.0818 24.445 30.3637 26.5235 31.0215C20.216 32.361 14.6997 37.3559 14.6997 41.3973C14.6997 42.7005 15.2435 44.68 18.4497 44.68H40.9497C44.156 44.68 44.6997 42.7005 44.6997 41.3973C44.6997 37.3592 39.1872 32.3577 32.876 31.0215Z" fill="white"/>
<path d="M32.876 31.0215C34.9544 30.3637 36.7024 29.0818 37.8121 27.4016C38.9218 25.7213 39.3222 23.7505 38.9427 21.8362C38.5632 19.9218 37.4281 18.1866 35.7373 16.9361C34.0466 15.6856 31.9086 15 29.6997 15C27.4909 15 25.3528 15.6856 23.6621 16.9361C21.9713 18.1866 20.8363 19.9218 20.4567 21.8362C20.0772 23.7505 20.4776 25.7213 21.5873 27.4016C22.6971 29.0818 24.445 30.3637 26.5235 31.0215C20.216 32.361 14.6997 37.3559 14.6997 41.3973C14.6997 42.7005 15.2435 44.68 18.4497 44.68H40.9497C44.156 44.68 44.6997 42.7005 44.6997 41.3973C44.6997 37.3592 39.1872 32.3577 32.876 31.0215Z" fill="#0C0C07"/>
<path d="M32.7251 30.5448L30.9156 31.1176L32.7724 31.5107C35.8389 32.1599 38.7171 33.7025 40.8228 35.5702C42.9464 37.4539 44.1997 39.5886 44.1997 41.3973C44.1997 41.9921 44.0736 42.6793 43.6397 43.2112C43.2216 43.7236 42.4446 44.18 40.9497 44.18H18.4497C16.9549 44.18 16.1779 43.7236 15.7598 43.2112C15.3258 42.6793 15.1997 41.9921 15.1997 41.3973C15.1997 39.587 16.4538 37.4532 18.5779 35.5703C20.6841 33.7034 23.5624 32.1615 26.6273 31.5106L28.4816 31.1168L26.6743 30.5448C24.6954 29.9185 23.0458 28.7025 22.0045 27.126C20.9647 25.5517 20.5941 23.7142 20.9472 21.9334C21.3005 20.151 22.3603 18.5208 23.9594 17.3381C25.5596 16.1546 27.5922 15.5 29.6997 15.5C31.8073 15.5 33.8398 16.1546 35.44 17.3381C37.0391 18.5208 38.0989 20.151 38.4522 21.9334C38.8053 23.7142 38.4347 25.5517 37.3949 27.126C36.3536 28.7025 34.704 29.9185 32.7251 30.5448Z" stroke="white"/>
</svg>
