<svg width="60" height="60" viewBox="0 0 60 60" fill="none" xmlns="http://www.w3.org/2000/svg">
<g clip-path="url(#clip0_188_401)">
<path d="M30 60.0002C22.0435 60.0002 14.4129 56.8395 8.7868 51.2134C3.16071 45.5874 0 37.9567 0 30.0002C0 22.0437 3.16071 14.4131 8.7868 8.78704C14.4129 3.16095 22.0435 0.000244141 30 0.000244141C37.9565 0.000244141 45.5871 3.16095 51.2132 8.78704C56.8393 14.4131 60 22.0437 60 30.0002C60 37.9567 56.8393 45.5874 51.2132 51.2134C45.5871 56.8395 37.9565 60.0002 30 60.0002ZM33.1763 29.4565C35.2547 28.7087 37.0026 27.2517 38.1124 25.3418C39.2221 23.432 39.6225 21.1919 39.243 19.0159C38.8634 16.8399 37.7284 14.8676 36.0376 13.4462C34.3469 12.0248 32.2088 11.2455 30 11.2455C27.7912 11.2455 25.6531 12.0248 23.9624 13.4462C22.2716 14.8676 21.1366 16.8399 20.757 19.0159C20.3775 21.1919 20.7779 23.432 21.8876 25.3418C22.9974 27.2517 24.7453 28.7087 26.8237 29.4565C20.5162 30.979 15 36.6565 15 41.2502C15 42.7315 15.5437 44.9815 18.75 44.9815H41.25C44.4562 44.9815 45 42.7315 45 41.2502C45 36.6602 39.4875 30.9752 33.1763 29.4565Z" fill="white"/>
</g>
<defs>
<clipPath id="clip0_188_401">
<rect width="60" height="60" fill="white" transform="translate(0 0.000244141)"/>
</clipPath>
</defs>
</svg>
